<svg xmlns="http://www.w3.org/2000/svg" width="10.412" height="12.147" viewBox="0 0 10.412 12.147">
  <defs>
    <style>
      .cls-1 {
        fill: #3b86ff;
      }
    </style>
  </defs>
  <path id="é”" class="cls-1" d="M132.618,71.467a1.01,1.01,0,0,0-.434,1.923V74.5a.434.434,0,1,0,.868,0V73.391a1.01,1.01,0,0,0-.434-1.923Zm4.194-2.024h-8.676a.867.867,0,0,0-.868.867v5.784a.868.868,0,0,0,.868.868h8.676a.868.868,0,0,0,.867-.868V70.31A.867.867,0,0,0,136.812,69.443Zm0,6.073c0,.479-.1.579-.579.579h-7.52c-.479,0-.578-.1-.578-.579V70.889c0-.479.1-.579.578-.579h7.52c.479,0,.579.1.579.579Zm-8.438-6.51a.444.444,0,0,0,.443-.431h0a3.753,3.753,0,0,1,6.9-1.015.436.436,0,1,0,.754-.428,4.63,4.63,0,0,0-8.535,1.329q0,.013-.005.026l-.006.032h0c0,.014,0,.028,0,.043A.444.444,0,0,0,128.374,69.006Z" transform="translate(-127.268 -64.815)"/>
</svg>
